<mxfile host="app.diagrams.net" modified="2023-06-16T09:40:29.526Z" agent="Mozilla/5.0 (Windows NT 10.0; Win64; x64; rv:109.0) Gecko/20100101 Firefox/112.0" etag="FrWSjKI4CFbEuHi-zaNf" version="21.4.0" type="github">
  <diagram id="R2lEEEUBdFMjLlhIrx00" name="Page-1">
    <mxGraphModel dx="1647" dy="893" grid="1" gridSize="10" guides="1" tooltips="1" connect="1" arrows="1" fold="1" page="1" pageScale="1" pageWidth="850" pageHeight="1100" math="0" shadow="0" extFonts="Permanent Marker^https://fonts.googleapis.com/css?family=Permanent+Marker">
      <root>
        <mxCell id="0" />
        <mxCell id="1" parent="0" />
        <mxCell id="EDVuPuXlWvKtLFAjsj-E-16" style="edgeStyle=none;shape=connector;rounded=0;orthogonalLoop=1;jettySize=auto;html=1;labelBackgroundColor=default;strokeColor=default;fontFamily=Helvetica;fontSize=11;fontColor=default;endArrow=none;endFill=0;" edge="1" parent="1" source="EDVuPuXlWvKtLFAjsj-E-1" target="EDVuPuXlWvKtLFAjsj-E-15">
          <mxGeometry relative="1" as="geometry" />
        </mxCell>
        <mxCell id="EDVuPuXlWvKtLFAjsj-E-1" value="label" style="whiteSpace=wrap;html=1;align=center;" vertex="1" parent="1">
          <mxGeometry x="225" y="80" width="100" height="40" as="geometry" />
        </mxCell>
        <mxCell id="EDVuPuXlWvKtLFAjsj-E-7" style="rounded=0;orthogonalLoop=1;jettySize=auto;html=1;endArrow=none;endFill=0;" edge="1" parent="1" source="EDVuPuXlWvKtLFAjsj-E-2" target="EDVuPuXlWvKtLFAjsj-E-1">
          <mxGeometry relative="1" as="geometry" />
        </mxCell>
        <mxCell id="EDVuPuXlWvKtLFAjsj-E-2" value="type" style="ellipse;whiteSpace=wrap;html=1;align=center;" vertex="1" parent="1">
          <mxGeometry x="85" y="10" width="100" height="40" as="geometry" />
        </mxCell>
        <mxCell id="EDVuPuXlWvKtLFAjsj-E-13" style="edgeStyle=none;shape=connector;rounded=0;orthogonalLoop=1;jettySize=auto;html=1;labelBackgroundColor=default;strokeColor=default;fontFamily=Helvetica;fontSize=11;fontColor=default;endArrow=none;endFill=0;" edge="1" parent="1" source="EDVuPuXlWvKtLFAjsj-E-3" target="EDVuPuXlWvKtLFAjsj-E-1">
          <mxGeometry relative="1" as="geometry" />
        </mxCell>
        <mxCell id="EDVuPuXlWvKtLFAjsj-E-3" value="description" style="ellipse;whiteSpace=wrap;html=1;align=center;" vertex="1" parent="1">
          <mxGeometry x="325" y="10" width="100" height="40" as="geometry" />
        </mxCell>
        <mxCell id="EDVuPuXlWvKtLFAjsj-E-12" style="edgeStyle=none;shape=connector;rounded=0;orthogonalLoop=1;jettySize=auto;html=1;entryX=0.5;entryY=0;entryDx=0;entryDy=0;labelBackgroundColor=default;strokeColor=default;fontFamily=Helvetica;fontSize=11;fontColor=default;endArrow=none;endFill=0;" edge="1" parent="1" source="EDVuPuXlWvKtLFAjsj-E-4" target="EDVuPuXlWvKtLFAjsj-E-1">
          <mxGeometry relative="1" as="geometry" />
        </mxCell>
        <mxCell id="EDVuPuXlWvKtLFAjsj-E-4" value="name" style="ellipse;whiteSpace=wrap;html=1;align=center;" vertex="1" parent="1">
          <mxGeometry x="215" y="10" width="100" height="40" as="geometry" />
        </mxCell>
        <mxCell id="EDVuPuXlWvKtLFAjsj-E-10" style="edgeStyle=none;shape=connector;rounded=0;orthogonalLoop=1;jettySize=auto;html=1;labelBackgroundColor=default;strokeColor=default;fontFamily=Helvetica;fontSize=11;fontColor=default;endArrow=none;endFill=0;" edge="1" parent="1" source="EDVuPuXlWvKtLFAjsj-E-5" target="EDVuPuXlWvKtLFAjsj-E-1">
          <mxGeometry relative="1" as="geometry" />
        </mxCell>
        <mxCell id="EDVuPuXlWvKtLFAjsj-E-5" value="detail_info" style="ellipse;whiteSpace=wrap;html=1;align=center;" vertex="1" parent="1">
          <mxGeometry x="85" y="80" width="100" height="40" as="geometry" />
        </mxCell>
        <mxCell id="EDVuPuXlWvKtLFAjsj-E-14" style="edgeStyle=none;shape=connector;rounded=0;orthogonalLoop=1;jettySize=auto;html=1;labelBackgroundColor=default;strokeColor=default;fontFamily=Helvetica;fontSize=11;fontColor=default;endArrow=none;endFill=0;" edge="1" parent="1" source="EDVuPuXlWvKtLFAjsj-E-28" target="EDVuPuXlWvKtLFAjsj-E-1">
          <mxGeometry relative="1" as="geometry">
            <mxPoint x="365" y="100" as="sourcePoint" />
          </mxGeometry>
        </mxCell>
        <mxCell id="EDVuPuXlWvKtLFAjsj-E-11" style="edgeStyle=none;shape=connector;rounded=0;orthogonalLoop=1;jettySize=auto;html=1;labelBackgroundColor=default;strokeColor=default;fontFamily=Helvetica;fontSize=11;fontColor=default;endArrow=none;endFill=0;" edge="1" parent="1" source="EDVuPuXlWvKtLFAjsj-E-8" target="EDVuPuXlWvKtLFAjsj-E-1">
          <mxGeometry relative="1" as="geometry" />
        </mxCell>
        <mxCell id="EDVuPuXlWvKtLFAjsj-E-8" value="label_id" style="ellipse;whiteSpace=wrap;html=1;align=center;" vertex="1" parent="1">
          <mxGeometry x="85" y="150" width="100" height="40" as="geometry" />
        </mxCell>
        <mxCell id="EDVuPuXlWvKtLFAjsj-E-18" style="edgeStyle=none;shape=connector;rounded=0;orthogonalLoop=1;jettySize=auto;html=1;labelBackgroundColor=default;strokeColor=default;fontFamily=Helvetica;fontSize=11;fontColor=default;endArrow=none;endFill=0;" edge="1" parent="1" source="EDVuPuXlWvKtLFAjsj-E-15" target="EDVuPuXlWvKtLFAjsj-E-17">
          <mxGeometry relative="1" as="geometry" />
        </mxCell>
        <mxCell id="EDVuPuXlWvKtLFAjsj-E-15" value="archive_label" style="shape=rhombus;perimeter=rhombusPerimeter;whiteSpace=wrap;html=1;align=center;fontFamily=Helvetica;fontSize=11;fontColor=default;" vertex="1" parent="1">
          <mxGeometry x="215" y="180" width="120" height="60" as="geometry" />
        </mxCell>
        <mxCell id="EDVuPuXlWvKtLFAjsj-E-60" style="edgeStyle=none;shape=connector;rounded=0;orthogonalLoop=1;jettySize=auto;html=1;labelBackgroundColor=default;strokeColor=default;fontFamily=Helvetica;fontSize=11;fontColor=default;endArrow=none;endFill=0;" edge="1" parent="1" source="EDVuPuXlWvKtLFAjsj-E-17" target="EDVuPuXlWvKtLFAjsj-E-59">
          <mxGeometry relative="1" as="geometry" />
        </mxCell>
        <mxCell id="EDVuPuXlWvKtLFAjsj-E-71" style="edgeStyle=none;shape=connector;rounded=0;orthogonalLoop=1;jettySize=auto;html=1;labelBackgroundColor=default;strokeColor=default;fontFamily=Helvetica;fontSize=11;fontColor=default;endArrow=none;endFill=0;" edge="1" parent="1" source="EDVuPuXlWvKtLFAjsj-E-17" target="EDVuPuXlWvKtLFAjsj-E-70">
          <mxGeometry relative="1" as="geometry" />
        </mxCell>
        <mxCell id="EDVuPuXlWvKtLFAjsj-E-17" value="archive" style="whiteSpace=wrap;html=1;align=center;fontFamily=Helvetica;fontSize=11;fontColor=default;" vertex="1" parent="1">
          <mxGeometry x="225" y="300" width="100" height="40" as="geometry" />
        </mxCell>
        <mxCell id="EDVuPuXlWvKtLFAjsj-E-20" style="edgeStyle=none;shape=connector;rounded=0;orthogonalLoop=1;jettySize=auto;html=1;labelBackgroundColor=default;strokeColor=default;fontFamily=Helvetica;fontSize=11;fontColor=default;endArrow=none;endFill=0;" edge="1" parent="1" source="EDVuPuXlWvKtLFAjsj-E-19" target="EDVuPuXlWvKtLFAjsj-E-17">
          <mxGeometry relative="1" as="geometry" />
        </mxCell>
        <mxCell id="EDVuPuXlWvKtLFAjsj-E-19" value="archive_id" style="ellipse;whiteSpace=wrap;html=1;align=center;" vertex="1" parent="1">
          <mxGeometry x="85" y="300" width="100" height="40" as="geometry" />
        </mxCell>
        <mxCell id="EDVuPuXlWvKtLFAjsj-E-22" style="edgeStyle=none;shape=connector;rounded=0;orthogonalLoop=1;jettySize=auto;html=1;labelBackgroundColor=default;strokeColor=default;fontFamily=Helvetica;fontSize=11;fontColor=default;endArrow=none;endFill=0;" edge="1" parent="1" source="EDVuPuXlWvKtLFAjsj-E-21" target="EDVuPuXlWvKtLFAjsj-E-17">
          <mxGeometry relative="1" as="geometry" />
        </mxCell>
        <mxCell id="EDVuPuXlWvKtLFAjsj-E-21" value="name" style="ellipse;whiteSpace=wrap;html=1;align=center;fontFamily=Helvetica;fontSize=11;fontColor=default;" vertex="1" parent="1">
          <mxGeometry x="85" y="370" width="100" height="40" as="geometry" />
        </mxCell>
        <mxCell id="EDVuPuXlWvKtLFAjsj-E-24" style="edgeStyle=none;shape=connector;rounded=0;orthogonalLoop=1;jettySize=auto;html=1;labelBackgroundColor=default;strokeColor=default;fontFamily=Helvetica;fontSize=11;fontColor=default;endArrow=none;endFill=0;" edge="1" parent="1" source="EDVuPuXlWvKtLFAjsj-E-47" target="EDVuPuXlWvKtLFAjsj-E-17">
          <mxGeometry relative="1" as="geometry">
            <mxPoint x="275" y="370" as="sourcePoint" />
          </mxGeometry>
        </mxCell>
        <mxCell id="EDVuPuXlWvKtLFAjsj-E-26" style="edgeStyle=none;shape=connector;rounded=0;orthogonalLoop=1;jettySize=auto;html=1;labelBackgroundColor=default;strokeColor=default;fontFamily=Helvetica;fontSize=11;fontColor=default;endArrow=none;endFill=0;" edge="1" parent="1" source="EDVuPuXlWvKtLFAjsj-E-27" target="EDVuPuXlWvKtLFAjsj-E-17">
          <mxGeometry relative="1" as="geometry">
            <mxPoint x="383.7652476222788" y="374.3826238111394" as="sourcePoint" />
          </mxGeometry>
        </mxCell>
        <mxCell id="EDVuPuXlWvKtLFAjsj-E-30" style="edgeStyle=none;shape=connector;rounded=0;orthogonalLoop=1;jettySize=auto;html=1;labelBackgroundColor=default;strokeColor=default;fontFamily=Helvetica;fontSize=11;fontColor=default;endArrow=none;endFill=0;" edge="1" parent="1" source="EDVuPuXlWvKtLFAjsj-E-27" target="EDVuPuXlWvKtLFAjsj-E-29">
          <mxGeometry relative="1" as="geometry" />
        </mxCell>
        <mxCell id="EDVuPuXlWvKtLFAjsj-E-27" value="archive_relate_paper" style="shape=rhombus;perimeter=rhombusPerimeter;whiteSpace=wrap;html=1;align=center;fontFamily=Helvetica;fontSize=11;fontColor=default;" vertex="1" parent="1">
          <mxGeometry x="465" y="290" width="120" height="60" as="geometry" />
        </mxCell>
        <mxCell id="EDVuPuXlWvKtLFAjsj-E-31" style="edgeStyle=none;shape=connector;rounded=0;orthogonalLoop=1;jettySize=auto;html=1;entryX=0.5;entryY=0;entryDx=0;entryDy=0;labelBackgroundColor=default;strokeColor=default;fontFamily=Helvetica;fontSize=11;fontColor=default;endArrow=none;endFill=0;" edge="1" parent="1" source="EDVuPuXlWvKtLFAjsj-E-28" target="EDVuPuXlWvKtLFAjsj-E-29">
          <mxGeometry relative="1" as="geometry" />
        </mxCell>
        <mxCell id="EDVuPuXlWvKtLFAjsj-E-28" value="label_relate_paper" style="shape=rhombus;perimeter=rhombusPerimeter;whiteSpace=wrap;html=1;align=center;fontFamily=Helvetica;fontSize=11;fontColor=default;" vertex="1" parent="1">
          <mxGeometry x="465" y="70" width="120" height="60" as="geometry" />
        </mxCell>
        <mxCell id="EDVuPuXlWvKtLFAjsj-E-29" value="paper" style="whiteSpace=wrap;html=1;align=center;fontFamily=Helvetica;fontSize=11;fontColor=default;" vertex="1" parent="1">
          <mxGeometry x="475" y="190" width="100" height="40" as="geometry" />
        </mxCell>
        <mxCell id="EDVuPuXlWvKtLFAjsj-E-45" style="edgeStyle=none;shape=connector;rounded=0;orthogonalLoop=1;jettySize=auto;html=1;labelBackgroundColor=default;strokeColor=default;fontFamily=Helvetica;fontSize=11;fontColor=default;endArrow=none;endFill=0;" edge="1" parent="1" source="EDVuPuXlWvKtLFAjsj-E-32" target="EDVuPuXlWvKtLFAjsj-E-29">
          <mxGeometry relative="1" as="geometry" />
        </mxCell>
        <mxCell id="EDVuPuXlWvKtLFAjsj-E-32" value="type" style="ellipse;whiteSpace=wrap;html=1;align=center;" vertex="1" parent="1">
          <mxGeometry x="680" y="310" width="100" height="40" as="geometry" />
        </mxCell>
        <mxCell id="EDVuPuXlWvKtLFAjsj-E-44" style="edgeStyle=none;shape=connector;rounded=0;orthogonalLoop=1;jettySize=auto;html=1;labelBackgroundColor=default;strokeColor=default;fontFamily=Helvetica;fontSize=11;fontColor=default;endArrow=none;endFill=0;" edge="1" parent="1" source="EDVuPuXlWvKtLFAjsj-E-33" target="EDVuPuXlWvKtLFAjsj-E-29">
          <mxGeometry relative="1" as="geometry" />
        </mxCell>
        <mxCell id="EDVuPuXlWvKtLFAjsj-E-33" value="periodical " style="ellipse;whiteSpace=wrap;html=1;align=center;" vertex="1" parent="1">
          <mxGeometry x="680" y="250" width="100" height="40" as="geometry" />
        </mxCell>
        <mxCell id="EDVuPuXlWvKtLFAjsj-E-41" style="edgeStyle=none;shape=connector;rounded=0;orthogonalLoop=1;jettySize=auto;html=1;labelBackgroundColor=default;strokeColor=default;fontFamily=Helvetica;fontSize=11;fontColor=default;endArrow=none;endFill=0;" edge="1" parent="1" source="EDVuPuXlWvKtLFAjsj-E-34" target="EDVuPuXlWvKtLFAjsj-E-29">
          <mxGeometry relative="1" as="geometry" />
        </mxCell>
        <mxCell id="EDVuPuXlWvKtLFAjsj-E-34" value="name" style="ellipse;whiteSpace=wrap;html=1;align=center;" vertex="1" parent="1">
          <mxGeometry x="680" y="70" width="100" height="40" as="geometry" />
        </mxCell>
        <mxCell id="EDVuPuXlWvKtLFAjsj-E-43" style="edgeStyle=none;shape=connector;rounded=0;orthogonalLoop=1;jettySize=auto;html=1;labelBackgroundColor=default;strokeColor=default;fontFamily=Helvetica;fontSize=11;fontColor=default;endArrow=none;endFill=0;" edge="1" parent="1" source="EDVuPuXlWvKtLFAjsj-E-35" target="EDVuPuXlWvKtLFAjsj-E-29">
          <mxGeometry relative="1" as="geometry" />
        </mxCell>
        <mxCell id="EDVuPuXlWvKtLFAjsj-E-35" value="author" style="ellipse;whiteSpace=wrap;html=1;align=center;" vertex="1" parent="1">
          <mxGeometry x="680" y="190" width="100" height="40" as="geometry" />
        </mxCell>
        <mxCell id="EDVuPuXlWvKtLFAjsj-E-42" style="edgeStyle=none;shape=connector;rounded=0;orthogonalLoop=1;jettySize=auto;html=1;labelBackgroundColor=default;strokeColor=default;fontFamily=Helvetica;fontSize=11;fontColor=default;endArrow=none;endFill=0;" edge="1" parent="1" source="EDVuPuXlWvKtLFAjsj-E-36" target="EDVuPuXlWvKtLFAjsj-E-29">
          <mxGeometry relative="1" as="geometry" />
        </mxCell>
        <mxCell id="EDVuPuXlWvKtLFAjsj-E-36" value="DOI" style="ellipse;whiteSpace=wrap;html=1;align=center;" vertex="1" parent="1">
          <mxGeometry x="680" y="130" width="100" height="40" as="geometry" />
        </mxCell>
        <mxCell id="EDVuPuXlWvKtLFAjsj-E-48" style="edgeStyle=none;shape=connector;rounded=0;orthogonalLoop=1;jettySize=auto;html=1;exitX=0.5;exitY=1;exitDx=0;exitDy=0;labelBackgroundColor=default;strokeColor=default;fontFamily=Helvetica;fontSize=11;fontColor=default;endArrow=none;endFill=0;" edge="1" parent="1" source="EDVuPuXlWvKtLFAjsj-E-46" target="EDVuPuXlWvKtLFAjsj-E-47">
          <mxGeometry relative="1" as="geometry">
            <mxPoint x="285" y="500" as="targetPoint" />
          </mxGeometry>
        </mxCell>
        <mxCell id="EDVuPuXlWvKtLFAjsj-E-46" value="miRNA" style="whiteSpace=wrap;html=1;align=center;fontFamily=Helvetica;fontSize=11;fontColor=default;" vertex="1" parent="1">
          <mxGeometry x="225" y="520" width="100" height="40" as="geometry" />
        </mxCell>
        <mxCell id="EDVuPuXlWvKtLFAjsj-E-47" value="archive_miRNA" style="shape=rhombus;perimeter=rhombusPerimeter;whiteSpace=wrap;html=1;align=center;fontFamily=Helvetica;fontSize=11;fontColor=default;" vertex="1" parent="1">
          <mxGeometry x="215" y="400" width="120" height="60" as="geometry" />
        </mxCell>
        <mxCell id="EDVuPuXlWvKtLFAjsj-E-51" style="edgeStyle=none;shape=connector;rounded=0;orthogonalLoop=1;jettySize=auto;html=1;labelBackgroundColor=default;strokeColor=default;fontFamily=Helvetica;fontSize=11;fontColor=default;endArrow=none;endFill=0;" edge="1" parent="1" source="EDVuPuXlWvKtLFAjsj-E-50" target="EDVuPuXlWvKtLFAjsj-E-46">
          <mxGeometry relative="1" as="geometry" />
        </mxCell>
        <mxCell id="EDVuPuXlWvKtLFAjsj-E-50" value="sequence" style="ellipse;whiteSpace=wrap;html=1;align=center;fontFamily=Helvetica;fontSize=11;fontColor=default;" vertex="1" parent="1">
          <mxGeometry x="85" y="520" width="100" height="40" as="geometry" />
        </mxCell>
        <mxCell id="EDVuPuXlWvKtLFAjsj-E-54" style="edgeStyle=none;shape=connector;rounded=0;orthogonalLoop=1;jettySize=auto;html=1;labelBackgroundColor=default;strokeColor=default;fontFamily=Helvetica;fontSize=11;fontColor=default;endArrow=none;endFill=0;" edge="1" parent="1" source="EDVuPuXlWvKtLFAjsj-E-52" target="EDVuPuXlWvKtLFAjsj-E-29">
          <mxGeometry relative="1" as="geometry" />
        </mxCell>
        <mxCell id="EDVuPuXlWvKtLFAjsj-E-52" value="paper_id" style="ellipse;whiteSpace=wrap;html=1;align=center;fontFamily=Helvetica;fontSize=11;fontColor=default;" vertex="1" parent="1">
          <mxGeometry x="680" y="370" width="100" height="40" as="geometry" />
        </mxCell>
        <mxCell id="EDVuPuXlWvKtLFAjsj-E-56" style="edgeStyle=none;shape=connector;rounded=0;orthogonalLoop=1;jettySize=auto;html=1;labelBackgroundColor=default;strokeColor=default;fontFamily=Helvetica;fontSize=11;fontColor=default;endArrow=none;endFill=0;" edge="1" parent="1" source="EDVuPuXlWvKtLFAjsj-E-55" target="EDVuPuXlWvKtLFAjsj-E-46">
          <mxGeometry relative="1" as="geometry" />
        </mxCell>
        <mxCell id="EDVuPuXlWvKtLFAjsj-E-55" value="miRNA_id" style="ellipse;whiteSpace=wrap;html=1;align=center;fontFamily=Helvetica;fontSize=11;fontColor=default;" vertex="1" parent="1">
          <mxGeometry x="85" y="600" width="100" height="40" as="geometry" />
        </mxCell>
        <mxCell id="EDVuPuXlWvKtLFAjsj-E-58" style="edgeStyle=none;shape=connector;rounded=0;orthogonalLoop=1;jettySize=auto;html=1;labelBackgroundColor=default;strokeColor=default;fontFamily=Helvetica;fontSize=11;fontColor=default;endArrow=none;endFill=0;" edge="1" parent="1" source="EDVuPuXlWvKtLFAjsj-E-57" target="EDVuPuXlWvKtLFAjsj-E-46">
          <mxGeometry relative="1" as="geometry" />
        </mxCell>
        <mxCell id="EDVuPuXlWvKtLFAjsj-E-57" value="shape" style="ellipse;whiteSpace=wrap;html=1;align=center;fontFamily=Helvetica;fontSize=11;fontColor=default;" vertex="1" parent="1">
          <mxGeometry x="85" y="450" width="100" height="40" as="geometry" />
        </mxCell>
        <mxCell id="EDVuPuXlWvKtLFAjsj-E-62" style="edgeStyle=none;shape=connector;rounded=0;orthogonalLoop=1;jettySize=auto;html=1;labelBackgroundColor=default;strokeColor=default;fontFamily=Helvetica;fontSize=11;fontColor=default;endArrow=none;endFill=0;" edge="1" parent="1" source="EDVuPuXlWvKtLFAjsj-E-59" target="EDVuPuXlWvKtLFAjsj-E-61">
          <mxGeometry relative="1" as="geometry" />
        </mxCell>
        <mxCell id="EDVuPuXlWvKtLFAjsj-E-64" style="edgeStyle=none;shape=connector;rounded=0;orthogonalLoop=1;jettySize=auto;html=1;labelBackgroundColor=default;strokeColor=default;fontFamily=Helvetica;fontSize=11;fontColor=default;endArrow=none;endFill=0;" edge="1" parent="1" source="EDVuPuXlWvKtLFAjsj-E-59" target="EDVuPuXlWvKtLFAjsj-E-63">
          <mxGeometry relative="1" as="geometry" />
        </mxCell>
        <mxCell id="EDVuPuXlWvKtLFAjsj-E-59" value="view_history" style="shape=rhombus;perimeter=rhombusPerimeter;whiteSpace=wrap;html=1;align=center;fontFamily=Helvetica;fontSize=11;fontColor=default;" vertex="1" parent="1">
          <mxGeometry x="510" y="400" width="120" height="60" as="geometry" />
        </mxCell>
        <mxCell id="EDVuPuXlWvKtLFAjsj-E-76" style="edgeStyle=none;shape=connector;rounded=0;orthogonalLoop=1;jettySize=auto;html=1;labelBackgroundColor=default;strokeColor=default;fontFamily=Helvetica;fontSize=11;fontColor=default;endArrow=none;endFill=0;" edge="1" parent="1" source="EDVuPuXlWvKtLFAjsj-E-61" target="EDVuPuXlWvKtLFAjsj-E-68">
          <mxGeometry relative="1" as="geometry" />
        </mxCell>
        <mxCell id="EDVuPuXlWvKtLFAjsj-E-77" style="edgeStyle=none;shape=connector;rounded=0;orthogonalLoop=1;jettySize=auto;html=1;labelBackgroundColor=default;strokeColor=default;fontFamily=Helvetica;fontSize=11;fontColor=default;endArrow=none;endFill=0;" edge="1" parent="1" source="EDVuPuXlWvKtLFAjsj-E-61" target="EDVuPuXlWvKtLFAjsj-E-69">
          <mxGeometry relative="1" as="geometry" />
        </mxCell>
        <mxCell id="EDVuPuXlWvKtLFAjsj-E-78" style="edgeStyle=none;shape=connector;rounded=0;orthogonalLoop=1;jettySize=auto;html=1;labelBackgroundColor=default;strokeColor=default;fontFamily=Helvetica;fontSize=11;fontColor=default;endArrow=none;endFill=0;" edge="1" parent="1" source="EDVuPuXlWvKtLFAjsj-E-61" target="EDVuPuXlWvKtLFAjsj-E-73">
          <mxGeometry relative="1" as="geometry" />
        </mxCell>
        <mxCell id="EDVuPuXlWvKtLFAjsj-E-79" style="edgeStyle=none;shape=connector;rounded=0;orthogonalLoop=1;jettySize=auto;html=1;labelBackgroundColor=default;strokeColor=default;fontFamily=Helvetica;fontSize=11;fontColor=default;endArrow=none;endFill=0;" edge="1" parent="1" source="EDVuPuXlWvKtLFAjsj-E-61" target="EDVuPuXlWvKtLFAjsj-E-74">
          <mxGeometry relative="1" as="geometry" />
        </mxCell>
        <mxCell id="EDVuPuXlWvKtLFAjsj-E-80" style="edgeStyle=none;shape=connector;rounded=0;orthogonalLoop=1;jettySize=auto;html=1;labelBackgroundColor=default;strokeColor=default;fontFamily=Helvetica;fontSize=11;fontColor=default;endArrow=none;endFill=0;" edge="1" parent="1" source="EDVuPuXlWvKtLFAjsj-E-61" target="EDVuPuXlWvKtLFAjsj-E-75">
          <mxGeometry relative="1" as="geometry" />
        </mxCell>
        <mxCell id="EDVuPuXlWvKtLFAjsj-E-81" style="edgeStyle=none;shape=connector;rounded=0;orthogonalLoop=1;jettySize=auto;html=1;labelBackgroundColor=default;strokeColor=default;fontFamily=Helvetica;fontSize=11;fontColor=default;endArrow=none;endFill=0;" edge="1" parent="1" source="EDVuPuXlWvKtLFAjsj-E-61" target="EDVuPuXlWvKtLFAjsj-E-66">
          <mxGeometry relative="1" as="geometry" />
        </mxCell>
        <mxCell id="EDVuPuXlWvKtLFAjsj-E-82" style="edgeStyle=none;shape=connector;rounded=0;orthogonalLoop=1;jettySize=auto;html=1;labelBackgroundColor=default;strokeColor=default;fontFamily=Helvetica;fontSize=11;fontColor=default;endArrow=none;endFill=0;" edge="1" parent="1" source="EDVuPuXlWvKtLFAjsj-E-61" target="EDVuPuXlWvKtLFAjsj-E-65">
          <mxGeometry relative="1" as="geometry" />
        </mxCell>
        <mxCell id="EDVuPuXlWvKtLFAjsj-E-83" style="edgeStyle=none;shape=connector;rounded=0;orthogonalLoop=1;jettySize=auto;html=1;labelBackgroundColor=default;strokeColor=default;fontFamily=Helvetica;fontSize=11;fontColor=default;endArrow=none;endFill=0;" edge="1" parent="1" source="EDVuPuXlWvKtLFAjsj-E-61" target="EDVuPuXlWvKtLFAjsj-E-67">
          <mxGeometry relative="1" as="geometry" />
        </mxCell>
        <mxCell id="EDVuPuXlWvKtLFAjsj-E-61" value="user" style="whiteSpace=wrap;html=1;align=center;fontFamily=Helvetica;fontSize=11;fontColor=default;" vertex="1" parent="1">
          <mxGeometry x="475" y="520" width="100" height="40" as="geometry" />
        </mxCell>
        <mxCell id="EDVuPuXlWvKtLFAjsj-E-63" value="time" style="ellipse;whiteSpace=wrap;html=1;align=center;fontFamily=Helvetica;fontSize=11;fontColor=default;" vertex="1" parent="1">
          <mxGeometry x="680" y="430" width="100" height="40" as="geometry" />
        </mxCell>
        <mxCell id="EDVuPuXlWvKtLFAjsj-E-65" value="permission" style="ellipse;whiteSpace=wrap;html=1;align=center;fontFamily=Helvetica;fontSize=11;fontColor=default;" vertex="1" parent="1">
          <mxGeometry x="680" y="580" width="100" height="40" as="geometry" />
        </mxCell>
        <mxCell id="EDVuPuXlWvKtLFAjsj-E-66" value="user_id" style="ellipse;whiteSpace=wrap;html=1;align=center;fontFamily=Helvetica;fontSize=11;fontColor=default;" vertex="1" parent="1">
          <mxGeometry x="680" y="520" width="100" height="40" as="geometry" />
        </mxCell>
        <mxCell id="EDVuPuXlWvKtLFAjsj-E-67" value="email" style="ellipse;whiteSpace=wrap;html=1;align=center;fontFamily=Helvetica;fontSize=11;fontColor=default;" vertex="1" parent="1">
          <mxGeometry x="680" y="640" width="100" height="40" as="geometry" />
        </mxCell>
        <mxCell id="EDVuPuXlWvKtLFAjsj-E-68" value="role" style="ellipse;whiteSpace=wrap;html=1;align=center;fontFamily=Helvetica;fontSize=11;fontColor=default;" vertex="1" parent="1">
          <mxGeometry x="350" y="520" width="100" height="40" as="geometry" />
        </mxCell>
        <mxCell id="EDVuPuXlWvKtLFAjsj-E-69" value="user_name" style="ellipse;whiteSpace=wrap;html=1;align=center;fontFamily=Helvetica;fontSize=11;fontColor=default;" vertex="1" parent="1">
          <mxGeometry x="350" y="580" width="100" height="40" as="geometry" />
        </mxCell>
        <mxCell id="EDVuPuXlWvKtLFAjsj-E-72" style="edgeStyle=none;shape=connector;rounded=0;orthogonalLoop=1;jettySize=auto;html=1;labelBackgroundColor=default;strokeColor=default;fontFamily=Helvetica;fontSize=11;fontColor=default;endArrow=none;endFill=0;" edge="1" parent="1" source="EDVuPuXlWvKtLFAjsj-E-70" target="EDVuPuXlWvKtLFAjsj-E-61">
          <mxGeometry relative="1" as="geometry" />
        </mxCell>
        <mxCell id="EDVuPuXlWvKtLFAjsj-E-70" value="marked_archive" style="shape=rhombus;perimeter=rhombusPerimeter;whiteSpace=wrap;html=1;align=center;fontFamily=Helvetica;fontSize=11;fontColor=default;" vertex="1" parent="1">
          <mxGeometry x="365" y="400" width="120" height="60" as="geometry" />
        </mxCell>
        <mxCell id="EDVuPuXlWvKtLFAjsj-E-73" value="gender" style="ellipse;whiteSpace=wrap;html=1;align=center;fontFamily=Helvetica;fontSize=11;fontColor=default;" vertex="1" parent="1">
          <mxGeometry x="350" y="640" width="100" height="40" as="geometry" />
        </mxCell>
        <mxCell id="EDVuPuXlWvKtLFAjsj-E-74" value="country" style="ellipse;whiteSpace=wrap;html=1;align=center;fontFamily=Helvetica;fontSize=11;fontColor=default;" vertex="1" parent="1">
          <mxGeometry x="460" y="640" width="100" height="40" as="geometry" />
        </mxCell>
        <mxCell id="EDVuPuXlWvKtLFAjsj-E-75" value="university" style="ellipse;whiteSpace=wrap;html=1;align=center;fontFamily=Helvetica;fontSize=11;fontColor=default;" vertex="1" parent="1">
          <mxGeometry x="570" y="640" width="100" height="40" as="geometry" />
        </mxCell>
      </root>
    </mxGraphModel>
  </diagram>
</mxfile>
